<?xml version="1.0" ?><svg height="24px" version="1.1" viewBox="0 0 24 24" width="24px" xmlns="http://www.w3.org/2000/svg" xmlns:sketch="http://www.bohemiancoding.com/sketch/ns" xmlns:xlink="http://www.w3.org/1999/xlink"><title/><desc/><defs/><g fill="none" fill-rule="evenodd" id="miu" stroke="none" stroke-width="1"><g id="Artboard-1" transform="translate(-287.000000, -443.000000)"><g id="slice" transform="translate(215.000000, 119.000000)"/><path d="M288,444 L288,447 L289,447 L289,445 L291,445 L291,444 L288,444 Z M307,444 L307,445 L309,445 L309,447 L310,447 L310,444 L307,444 Z M288,463 L288,466 L291,466 L291,465 L289,465 L289,463 L288,463 Z M309,463 L309,465 L307,465 L307,466 L310,466 L310,463 L309,463 Z M290,446 L290,464 L308,464 L308,446 L290,446 Z M291,447 L291,463 L307,463 L307,447 L291,447 Z" fill="#8a8a8a" id="editor-resize-outline-stroke"/></g></g></svg>